<svg width="246" height="126" viewBox="0 0 246 126" fill="none" xmlns="http://www.w3.org/2000/svg">
<path d="M123.398 0L124.762 0.17573C131.783 1.30367 137.467 6.8412 138.739 13.805L138.998 15.7339V18.0634L138.739 19.9515C138.05 23.7889 135.627 27.328 133.709 30.6791C130.342 36.5641 126.913 42.4163 123.522 48.2848C123.214 48.6526 122.836 48.8692 122.372 49H121.633C121.251 48.8651 120.885 48.7098 120.606 48.4074C117.366 42.923 114.163 37.3937 110.993 31.8602C108.727 27.9124 105.902 23.9033 105.175 19.3466L105.006 17.6138C105.023 17.1398 104.986 16.6575 105.006 16.1835C105.269 9.94712 109.035 4.27882 114.681 1.59791C116.401 0.780567 118.709 0.110342 120.606 0H123.398ZM127.365 23.6459C131.566 19.4815 129.513 12.2643 123.76 10.9361C117.625 9.5221 112.529 15.6604 115.096 21.3982C117.239 26.1796 123.628 27.3485 127.365 23.6459Z" fill="white"/>
<path fill-rule="evenodd" clip-rule="evenodd" d="M4 92.005V63H242V92.005H4Z" fill="black"/>
<path fill-rule="evenodd" clip-rule="evenodd" d="M0 126.005V97H246V126.005H0Z" fill="black"/>
<path fill-rule="evenodd" clip-rule="evenodd" d="M241.004 113.933H234.011C234.05 114.483 234.182 114.939 234.408 115.301C234.634 115.664 234.952 115.935 235.362 116.116C235.771 116.296 236.276 116.386 236.875 116.386C237.516 116.386 238.15 116.337 238.777 116.239C239.404 116.141 239.961 116.004 240.447 115.829V118.151C239.87 118.421 239.267 118.617 238.64 118.739C238.013 118.862 237.309 118.923 236.528 118.923C235.372 118.923 234.385 118.697 233.567 118.245C232.75 117.794 232.128 117.134 231.702 116.265C231.277 115.397 231.064 114.355 231.064 113.14C231.064 111.894 231.258 110.824 231.647 109.931C232.036 109.038 232.602 108.363 233.344 107.906C234.087 107.449 234.99 107.221 236.055 107.221C237.12 107.221 238.025 107.444 238.771 107.89C239.518 108.337 240.087 108.992 240.479 109.857C240.871 110.722 241.067 111.738 241.067 112.904C241.067 113.331 241.046 113.674 241.004 113.933ZM237.81 110.569C237.638 110.221 237.405 109.959 237.111 109.784C236.817 109.609 236.465 109.521 236.055 109.521C235.652 109.521 235.307 109.607 235.02 109.779C234.733 109.95 234.506 110.209 234.34 110.556C234.173 110.903 234.071 111.333 234.032 111.848H238.12C238.085 111.344 237.982 110.917 237.81 110.569ZM234.574 105.955L236.596 102.551H239.996L236.812 105.955H234.574ZM230.585 87.3773C229.637 87.7373 228.518 87.9183 227.228 87.9183C226.292 87.9183 225.355 87.8293 224.417 87.6523C223.478 87.4753 222.792 87.2623 222.357 87.0113V83.9883C222.845 84.2083 223.551 84.4003 224.474 84.5663C225.396 84.7323 226.234 84.8143 226.987 84.8143C227.591 84.8143 228.091 84.7663 228.485 84.6703C228.879 84.5743 229.172 84.4303 229.365 84.2403C229.558 84.0503 229.654 83.8093 229.654 83.5183C229.654 83.2363 229.58 83.0033 229.432 82.8193C229.284 82.6363 229.04 82.4743 228.7 82.3323C228.359 82.1913 227.759 82.0183 226.899 81.8123C225.811 81.5523 224.951 81.2313 224.319 80.8483C223.688 80.4653 223.226 79.9913 222.935 79.4243C222.644 78.8583 222.498 78.1583 222.498 77.3253C222.498 76.3893 222.726 75.5953 223.18 74.9443C223.635 74.2923 224.305 73.8023 225.189 73.4733C226.074 73.1443 227.159 72.9793 228.445 72.9793C229.3 72.9793 230.156 73.0703 231.011 73.2513C231.867 73.4333 232.487 73.6553 232.872 73.9193V76.9423C232.384 76.7143 231.701 76.5153 230.823 76.3443C229.945 76.1743 229.152 76.0893 228.445 76.0893C228.006 76.0893 227.632 76.1353 227.323 76.2273C227.013 76.3193 226.778 76.4563 226.617 76.6403C226.456 76.8243 226.375 77.0523 226.375 77.3253C226.375 77.5983 226.443 77.8223 226.58 77.9973C226.717 78.1713 226.941 78.3243 227.252 78.4533C227.563 78.5833 228.18 78.7583 229.103 78.9773C230.196 79.2423 231.059 79.5643 231.693 79.9453C232.327 80.3253 232.792 80.7993 233.087 81.3653C233.383 81.9323 233.531 82.6313 233.531 83.4643C233.531 84.3553 233.277 85.1403 232.768 85.8193C232.26 86.4973 231.532 87.0163 230.585 87.3773ZM224.717 107.221C225.579 107.221 226.306 107.378 226.898 107.693C227.489 108.008 227.937 108.476 228.24 109.096C228.543 109.716 228.694 110.475 228.694 111.375V118.603H225.747V111.759C225.747 111.314 225.672 110.945 225.524 110.653C225.375 110.361 225.151 110.143 224.851 109.999C224.552 109.856 224.176 109.784 223.724 109.784C223.283 109.784 222.869 109.835 222.484 109.936C222.099 110.038 221.745 110.186 221.423 110.383V118.603H218.475V107.567H221.034L221.271 108.471C221.747 108.04 222.263 107.724 222.818 107.523C223.373 107.321 224.006 107.221 224.717 107.221ZM217.234 76.8453C216.744 77.0353 216.306 77.3163 215.921 77.6883V87.5083H212.151V73.3963H215.699L215.84 75.1553C216.306 74.4393 216.847 73.8973 217.463 73.5303C218.078 73.1633 218.758 72.9793 219.502 72.9793C219.95 72.9793 220.335 73.0353 220.657 73.1473V76.7473C220.057 76.6223 219.45 76.5593 218.837 76.5593C218.259 76.5593 217.725 76.6543 217.234 76.8453ZM212.386 107.567H214.945V118.303C214.945 119.501 214.728 120.506 214.293 121.318C213.859 122.13 213.214 122.741 212.36 123.151C211.505 123.561 210.451 123.766 209.197 123.766C208.335 123.766 207.557 123.696 206.862 123.558C206.166 123.42 205.568 123.216 205.067 122.946V120.541C205.586 120.754 206.178 120.922 206.843 121.045C207.509 121.167 208.179 121.229 208.856 121.229C209.612 121.229 210.216 121.133 210.668 120.942C211.12 120.752 211.454 120.45 211.672 120.039C211.889 119.628 211.997 119.084 211.997 118.408V117.851C211.616 118.223 211.174 118.498 210.673 118.679C210.172 118.859 209.602 118.949 208.961 118.949C207.994 118.949 207.151 118.715 206.433 118.245C205.715 117.776 205.165 117.101 204.781 116.221C204.398 115.34 204.206 114.306 204.206 113.119C204.206 111.876 204.404 110.812 204.799 109.926C205.195 109.04 205.773 108.367 206.533 107.909C207.293 107.45 208.204 107.221 209.265 107.221C209.875 107.221 210.419 107.306 210.897 107.475C211.375 107.645 211.806 107.905 212.192 108.255L212.386 107.567ZM211.997 110.278C211.696 110.092 211.355 109.952 210.975 109.857C210.595 109.763 210.176 109.716 209.717 109.716C209.188 109.716 208.738 109.845 208.367 110.104C207.996 110.363 207.712 110.745 207.516 111.249C207.32 111.753 207.222 112.354 207.222 113.051C207.222 113.734 207.327 114.335 207.539 114.855C207.751 115.375 208.052 115.771 208.44 116.042C208.829 116.313 209.29 116.449 209.822 116.449C210.274 116.449 210.678 116.404 211.033 116.315C211.389 116.226 211.71 116.092 211.997 115.913V110.278ZM199.822 81.5363C199.871 82.2403 200.04 82.8233 200.329 83.2863C200.618 83.7503 201.025 84.0973 201.549 84.3273C202.073 84.5583 202.718 84.6733 203.484 84.6733C204.304 84.6733 205.114 84.6113 205.916 84.4853C206.718 84.3603 207.43 84.1853 208.053 83.9613V86.9303C207.314 87.2753 206.543 87.5263 205.741 87.6823C204.94 87.8393 204.039 87.9183 203.04 87.9183C201.562 87.9183 200.3 87.6293 199.254 87.0513C198.208 86.4733 197.413 85.6293 196.869 84.5193C196.325 83.4083 196.053 82.0763 196.053 80.5223C196.053 78.9283 196.301 77.5603 196.799 76.4183C197.296 75.2763 198.019 74.4133 198.969 73.8293C199.918 73.2443 201.074 72.9523 202.436 72.9523C203.797 72.9523 204.955 73.2383 205.909 73.8093C206.863 74.3803 207.591 75.2183 208.093 76.3243C208.595 77.4303 208.846 78.7293 208.846 80.2203C208.846 80.7663 208.819 81.2053 208.765 81.5363H199.822ZM204.68 77.2343C204.46 76.7893 204.162 76.4543 203.786 76.2303C203.41 76.0063 202.96 75.8943 202.436 75.8943C201.921 75.8943 201.479 76.0043 201.112 76.2233C200.745 76.4433 200.455 76.7743 200.242 77.2183C200.029 77.6613 199.898 78.2123 199.849 78.8703H205.076C205.031 78.2253 204.899 77.6803 204.68 77.2343ZM192.779 118.603H189.595L185.591 107.567H188.801L190.803 114.107C190.971 114.712 191.099 115.271 191.187 115.782C191.33 115.11 191.474 114.551 191.617 114.107L193.729 107.567H196.719L192.779 118.603ZM188.924 73.3963H192.693V87.5083H188.924V73.3963ZM188.924 67.5853H192.693V71.2733H188.924V67.5853ZM184.671 87.6463C184.245 87.7013 183.773 87.7303 183.253 87.7303C182.483 87.7303 181.838 87.5913 181.318 87.3133C180.798 87.0353 180.409 86.6223 180.149 86.0743C179.889 85.5253 179.759 84.8483 179.759 84.0423V66.6523H183.529V83.5453C183.529 83.7783 183.561 83.9643 183.626 84.1023C183.691 84.2413 183.796 84.3443 183.942 84.4113C184.087 84.4793 184.288 84.5123 184.543 84.5123C184.978 84.5123 185.392 84.4743 185.786 84.3983V87.4003C185.468 87.5083 185.096 87.5903 184.671 87.6463ZM183.616 102.551L180.432 105.955H178.194L180.216 102.551H183.616ZM179.675 107.221C180.74 107.221 181.645 107.444 182.391 107.89C183.138 108.337 183.707 108.992 184.099 109.857C184.491 110.722 184.687 111.738 184.687 112.904C184.687 113.331 184.666 113.674 184.624 113.933H177.631C177.67 114.483 177.802 114.939 178.028 115.301C178.254 115.664 178.572 115.935 178.982 116.116C179.391 116.296 179.896 116.386 180.495 116.386C181.136 116.386 181.77 116.337 182.397 116.239C183.024 116.141 183.581 116.004 184.067 115.829V118.151C183.49 118.421 182.887 118.617 182.26 118.739C181.633 118.862 180.929 118.923 180.148 118.923C178.992 118.923 178.005 118.697 177.187 118.245C176.37 117.794 175.748 117.134 175.322 116.265C174.897 115.397 174.684 114.355 174.684 113.14C174.684 111.894 174.878 110.824 175.267 109.931C175.656 109.038 176.222 108.363 176.964 107.906C177.707 107.449 178.61 107.221 179.675 107.221ZM177.652 111.848H181.74C181.705 111.344 181.602 110.917 181.43 110.569C181.258 110.221 181.025 109.959 180.731 109.784C180.437 109.609 180.085 109.521 179.675 109.521C179.272 109.521 178.927 109.607 178.64 109.779C178.353 109.95 178.126 110.209 177.96 110.556C177.793 110.903 177.691 111.333 177.652 111.848ZM173.642 87.3773C172.694 87.7373 171.576 87.9183 170.286 87.9183C169.349 87.9183 168.412 87.8293 167.474 87.6523C166.535 87.4753 165.849 87.2623 165.414 87.0113V83.9883C165.903 84.2083 166.608 84.4003 167.531 84.5663C168.454 84.7323 169.291 84.8143 170.044 84.8143C170.648 84.8143 171.148 84.7663 171.542 84.6703C171.936 84.5743 172.23 84.4303 172.422 84.2403C172.615 84.0503 172.711 83.8093 172.711 83.5183C172.711 83.2363 172.637 83.0033 172.489 82.8193C172.342 82.6363 172.097 82.4743 171.757 82.3323C171.417 82.1913 170.816 82.0183 169.956 81.8123C168.868 81.5523 168.008 81.2313 167.376 80.8483C166.745 80.4653 166.283 79.9913 165.992 79.4243C165.701 78.8583 165.556 78.1583 165.556 77.3253C165.556 76.3893 165.783 75.5953 166.238 74.9443C166.692 74.2923 167.362 73.8023 168.246 73.4733C169.131 73.1443 170.216 72.9793 171.502 72.9793C172.357 72.9793 173.213 73.0703 174.068 73.2513C174.924 73.4333 175.544 73.6553 175.93 73.9193V76.9423C175.441 76.7143 174.758 76.5153 173.88 76.3443C173.002 76.1743 172.209 76.0893 171.502 76.0893C171.063 76.0893 170.689 76.1353 170.38 76.2273C170.071 76.3193 169.836 76.4563 169.674 76.6403C169.513 76.8243 169.432 77.0523 169.432 77.3253C169.432 77.5983 169.501 77.8223 169.637 77.9973C169.774 78.1713 169.098 78.3243 170.309 78.4533C170.62 78.5833 171.237 78.7583 172.16 78.9773C173.253 79.2423 174.117 79.5643 174.75 79.9453C175.384 80.3253 175.849 80.7993 176.145 81.3653C176.44 81.9323 176.588 82.6313 176.588 83.4643C176.588 84.3553 176.334 85.1403 175.825 85.8193C175.317 86.4973 174.589 87.0163 173.642 87.3773ZM170.174 102.927C170.946 103.088 171.551 103.309 171.989 103.589V106.083C171.471 105.835 170.81 105.632 170.006 105.477C169.202 105.321 168.415 105.243 167.645 105.243C167.046 105.243 166.539 105.322 166.124 105.479C165.709 105.637 165.397 105.869 165.186 106.175C164.976 106.481 164.871 106.853 164.871 107.291C164.871 107.69 164.968 108.017 165.163 108.27C165.357 108.524 165.678 108.746 166.124 108.935C166.571 109.124 167.228 109.313 168.097 109.502C169.196 109.743 170.084 110.066 170.76 110.471C171.436 110.875 171.936 111.382 172.26 111.991C172.583 112.6 172.745 113.334 172.745 114.191C172.745 115.193 172.499 116.051 172.005 116.767C171.511 117.483 170.787 118.026 169.833 118.395C168.878 118.764 167.718 118.949 166.353 118.949C165.326 118.949 164.387 118.869 163.534 118.708C162.682 118.547 162.022 118.326 161.557 118.046V115.546C162.061 115.795 162.733 115.997 163.574 116.153C164.414 116.309 165.255 116.386 166.095 116.386C166.845 116.386 167.471 116.306 167.976 116.145C168.48 115.984 168.859 115.746 169.113 115.431C169.367 115.116 169.494 114.725 169.494 114.26C169.494 113.857 169.396 113.524 169.2 113.262C169.004 112.999 168.68 112.767 168.228 112.566C167.776 112.365 167.13 112.168 166.29 111.975C165.204 111.727 164.323 111.397 163.647 110.985C162.971 110.574 162.468 110.065 162.137 109.457C161.806 108.85 161.641 108.128 161.641 107.291C161.641 106.244 161.86 105.382 162.3 104.705C162.739 104.027 163.403 103.521 164.291 103.187C165.179 102.853 166.296 102.685 167.645 102.685C168.559 102.685 169.402 102.766 170.174 102.927ZM154.08 81.5363C154.129 82.2403 154.298 82.8233 154.587 83.2863C154.876 83.7503 155.282 84.0973 155.806 84.3273C156.33 84.5583 156.976 84.6733 157.741 84.6733C158.561 84.6733 159.372 84.6113 160.174 84.4853C160.975 84.3603 161.688 84.1853 162.31 83.9613V86.9303C161.571 87.2753 160.801 87.5263 159.999 87.6823C159.197 87.8393 158.297 87.9183 157.298 87.9183C155.82 87.9183 154.558 87.6293 153.512 87.0513C152.466 86.4733 151.671 85.6293 151.127 84.5193C150.582 83.4083 150.31 82.0763 150.31 80.5223C150.31 78.9283 150.559 77.5603 151.056 76.4183C151.553 75.2763 152.277 74.4133 153.226 73.8293C154.176 73.2443 155.332 72.9523 156.693 72.9523C158.055 72.9523 159.213 73.2383 160.167 73.8093C161.121 74.3803 161.849 75.2183 162.351 76.3243C162.852 77.4303 163.103 78.7293 163.103 80.2203C163.103 80.7663 163.076 81.2053 163.023 81.5363H154.08ZM158.937 77.2343C158.718 76.7893 158.42 76.4543 158.044 76.2303C157.668 76.0063 157.217 75.8943 156.693 75.8943C156.178 75.8943 155.737 76.0043 155.37 76.2233C155.002 76.4433 154.712 76.7743 154.5 77.2183C154.287 77.6613 154.156 78.2123 154.107 78.8703H159.334C159.289 78.2253 159.157 77.6803 158.937 77.2343ZM151.681 111.377V118.603H148.734V111.76C148.734 111.315 148.66 110.947 148.511 110.654C148.362 110.362 148.138 110.144 147.838 110.001C147.539 109.857 147.163 109.785 146.712 109.785C146.27 109.785 145.857 109.836 145.472 109.938C145.087 110.039 144.733 110.188 144.411 110.384V118.603H141.464V107.569H144.022L144.259 108.473C144.735 108.042 145.25 107.726 145.806 107.525C146.361 107.323 146.994 107.223 147.704 107.223C148.566 107.223 149.293 107.38 149.884 107.695C150.476 108.01 150.924 108.478 151.227 109.097C151.529 109.717 151.681 110.477 151.681 111.377ZM143.067 76.5063C143.067 75.4313 143.15 74.0453 143.316 72.3483C142.792 73.8253 142.205 75.1113 141.556 76.2033L137.813 82.5043H135.448L131.706 76.2033C131.11 75.2273 130.532 73.9603 129.972 72.4013C130.133 74.0543 130.214 75.4223 130.214 76.5063V87.5083H126.559V67.5853H130.631L135.334 75.6793C135.939 76.7413 136.38 77.7123 136.658 78.5943C136.886 77.8063 137.325 76.8353 137.974 75.6793L142.684 67.5853H146.729V87.5083H143.067V76.5063ZM123.88 118.5C123.139 118.782 122.264 118.923 121.256 118.923C120.524 118.923 119.791 118.854 119.057 118.715C118.324 118.577 117.787 118.41 117.447 118.214V115.851C117.829 116.022 118.381 116.173 119.102 116.302C119.823 116.432 120.478 116.497 121.067 116.497C121.539 116.497 121.93 116.459 122.238 116.384C122.546 116.309 122.776 116.197 122.926 116.048C123.077 115.899 123.152 115.711 123.152 115.483C123.152 115.263 123.094 115.081 122.979 114.937C122.863 114.794 122.672 114.667 122.406 114.556C122.14 114.446 121.671 114.31 120.998 114.149C120.147 113.946 119.475 113.695 118.981 113.396C118.487 113.096 118.127 112.725 117.899 112.282C117.671 111.84 117.558 111.293 117.558 110.641C117.558 109.91 117.735 109.289 118.091 108.78C118.446 108.27 118.97 107.887 119.661 107.63C120.353 107.372 121.201 107.244 122.206 107.244C122.875 107.244 123.544 107.315 124.213 107.456C124.882 107.598 125.367 107.772 125.668 107.979V110.342C125.286 110.163 124.752 109.108 124.066 109.875C123.38 109.742 122.76 109.675 122.206 109.675C121.863 109.675 121.571 109.711 121.329 109.783C121.088 109.855 120.904 109.962 120.778 110.106C120.652 110.249 120.589 110.428 120.589 110.641C120.589 110.855 120.642 111.03 120.749 111.167C120.856 111.303 121.031 111.422 121.274 111.524C121.517 111.625 122 111.762 122.721 111.933C123.576 112.14 124.251 112.392 124.746 112.689C125.242 112.987 125.605 113.357 125.836 113.8C126.067 114.243 126.183 114.79 126.183 115.441C126.183 116.138 125.984 116.751 125.587 117.282C125.189 117.812 124.62 118.218 123.88 118.5ZM113.145 87.3773C112.197 87.7373 111.079 87.9183 109.789 87.9183C108.852 87.9183 107.915 87.8293 106.977 87.6523C106.038 87.4753 105.352 87.2623 104.917 87.0113V83.9883C105.406 84.2083 106.111 84.4003 107.034 84.5663C107.957 84.7323 108.794 84.8143 109.547 84.8143C110.151 84.8143 110.651 84.7663 111.045 84.6703C111.439 84.5743 111.733 84.4303 111.925 84.2403C112.118 84.0503 112.214 83.8093 112.214 83.5183C112.214 83.2363 112.14 83.0033 111.992 82.8193C111.845 82.6363 111.6 82.4743 111.26 82.3323C110.92 82.1913 110.319 82.0183 109.459 81.8123C108.371 81.5523 107.511 81.2313 106.879 80.8483C106.248 80.4653 105.786 79.9913 105.495 79.4243C105.204 78.8583 105.058 78.1583 105.058 77.3253C105.058 76.3893 105.286 75.5953 105.74 74.9443C106.195 74.2923 106.865 73.8023 107.749 73.4733C108.634 73.1443 109.719 72.9793 111.005 72.9793C111.86 72.9793 112.716 73.0703 113.571 73.2513C114.427 73.4333 115.047 73.6553 115.432 73.9193V76.9423C114.944 76.7143 114.261 76.5153 113.383 76.3443C112.505 76.1743 111.712 76.0893 111.005 76.0893C110.566 76.0893 110.192 76.1353 109.883 76.2273C109.574 76.3193 109.338 76.4563 109.177 76.6403C109.016 76.8243 108.935 77.0523 108.935 77.3253C108.935 77.5983 109.004 77.8223 109.14 77.9973C109.277 78.1713 109.501 78.3243 109.812 78.4533C110.123 78.5833 110.74 78.7583 111.663 78.9773C112.756 79.2423 113.619 79.5643 114.253 79.9453C114.887 80.3253 115.352 80.7993 115.647 81.3653C115.943 81.9323 116.091 82.6313 116.091 83.4643C116.091 84.3553 115.837 85.1403 115.328 85.8193C114.82 86.4973 114.092 87.0163 113.145 87.3773ZM105.119 113.934H98.1272C98.1652 114.484 98.2982 114.94 98.5232 115.302C98.7492 115.664 99.0671 115.936 99.4771 116.116C99.8871 116.296 100.391 116.386 100.99 116.386C101.631 116.386 102.264 116.337 102.891 116.239C103.518 116.141 104.075 116.005 104.562 115.83V118.151C103.984 118.421 103.382 118.616 102.755 118.739C102.128 118.862 101.424 118.923 100.643 118.923C99.4872 118.923 98.5012 118.697 97.6832 118.245C96.8652 117.794 96.2442 117.134 95.8182 116.266C95.3932 115.397 95.1802 114.356 95.1802 113.141C95.1802 111.895 95.3742 110.825 95.7632 109.932C96.1522 109.04 96.7172 108.365 97.4602 107.908C98.2022 107.451 99.1062 107.223 100.17 107.223C101.235 107.223 102.14 107.446 102.886 107.892C103.632 108.339 104.201 108.994 104.593 109.859C104.985 110.724 105.182 111.739 105.182 112.905C105.182 113.332 105.161 113.675 105.119 113.934ZM101.925 110.57C101.753 110.222 101.52 109.96 101.226 109.785C100.932 109.61 100.58 109.523 100.17 109.523C99.7672 109.523 99.4222 109.609 99.1352 109.78C98.8482 109.952 98.6212 110.211 98.4552 110.557C98.2892 110.904 98.1862 111.335 98.1482 111.849H102.235C102.2 111.345 102.096 110.919 101.925 110.57ZM93.5832 81.5363C93.6322 82.2403 93.8012 82.8233 94.0902 83.2863C94.3792 83.7503 94.7852 84.0973 95.3092 84.3273C95.8332 84.5583 96.4782 84.6733 97.2442 84.6733C98.0642 84.6733 98.8752 84.6113 99.6772 84.4853C100.478 84.3603 101.191 84.1853 101.813 83.9613V86.9303C101.074 87.2753 100.304 87.5263 99.5022 87.6823C98.7002 87.8393 97.8002 87.9183 96.8012 87.9183C95.3232 87.9183 94.0612 87.6293 93.0152 87.0513C91.9692 86.4733 91.1742 85.6293 90.6302 84.5193C90.0852 83.4083 89.8132 82.0763 89.8132 80.5223C89.8132 78.9283 90.0622 77.5603 90.5592 76.4183C91.0562 75.2763 91.7802 74.4133 92.7292 73.8293C93.6792 73.2443 94.8352 72.9523 96.1962 72.9523C97.5582 72.9523 98.7162 73.2383 99.6702 73.8093C100.624 74.3803 101.352 75.2183 101.854 76.3243C102.355 77.4303 102.606 78.7293 102.606 80.2203C102.606 80.7663 102.579 81.2053 102.525 81.5363H93.5832ZM98.4402 77.2343C98.2212 76.7893 97.9232 76.4543 97.5472 76.2303C97.1702 76.0063 96.7202 75.8943 96.1962 75.8943C95.6812 75.8943 95.2402 76.0043 94.8732 76.2233C94.5052 76.4433 94.2152 76.7743 94.0032 77.2183C93.7902 77.6613 93.6592 78.2123 93.6092 78.8703H98.8372C98.7922 78.2253 98.6602 77.6803 98.4402 77.2343ZM93.3682 103.631V106.146C92.8072 105.873 92.1672 105.666 91.4482 105.524C90.7282 105.382 89.9412 105.311 89.0862 105.311C88.2532 105.311 87.5501 105.518 86.9771 105.931C86.4051 106.344 85.9712 106.957 85.6772 107.769C85.3832 108.581 85.2362 109.575 85.2362 110.752C85.2362 112.065 85.3752 113.131 85.6542 113.95C85.9322 114.769 86.3592 115.373 86.9352 115.762C87.5112 116.15 88.2652 116.344 89.1972 116.344C90.0792 116.344 90.8502 116.284 91.5082 116.163C92.1662 116.042 92.8442 115.837 93.5412 115.546V118.067C92.7952 118.392 92.0572 118.621 91.3272 118.752C90.5972 118.884 89.7292 118.949 88.7242 118.949C87.2922 118.949 86.0802 118.636 85.0892 118.009C84.0982 117.382 83.3482 116.457 82.8382 115.231C82.3282 114.006 82.0742 112.513 82.0742 110.752C82.0742 109.075 82.3442 107.627 82.8852 106.409C83.4262 105.19 84.2092 104.265 85.2332 103.633C86.2582 103.001 87.4862 102.685 88.9182 102.685C89.8112 102.685 90.6362 102.766 91.3922 102.927C92.1492 103.088 92.8072 103.323 93.3682 103.631ZM83.0742 86.3763C81.7172 87.1313 80.0372 87.5083 78.0352 87.5083H70.9942V67.5853H78.0352C80.0732 67.5853 81.7682 67.9543 83.1212 68.6903C84.4742 69.4273 85.4872 70.5323 86.1622 72.0053C86.8362 73.4783 87.1732 75.3263 87.1732 77.5473C87.1732 79.7093 86.8292 81.5333 86.1412 83.0183C85.4542 84.5023 84.4312 85.6223 83.0742 86.3763ZM82.5602 73.8093C82.1642 72.8033 81.5752 72.0483 80.7932 71.5423C80.0112 71.0363 79.0472 70.7833 77.9012 70.7833H74.8702V84.3173H77.9012C79.0522 84.3173 80.0182 84.0623 80.8002 83.5523C81.5812 83.0413 82.1692 82.2833 82.5642 81.2783C82.9582 80.2733 83.1552 79.0293 83.1552 77.5473C83.1552 76.0603 82.9572 74.8143 82.5602 73.8093ZM73.6222 106.159C74.0452 107.327 74.2572 108.858 74.2572 110.752C74.2572 112.625 74.0422 114.161 73.6112 115.36C73.1802 116.559 72.5252 117.457 71.6442 118.054C70.7632 118.651 69.6492 118.949 68.3002 118.949C66.9352 118.949 65.8112 118.662 64.9312 118.088C64.0502 117.514 63.3982 116.643 62.9742 115.475C62.5502 114.308 62.3382 112.777 62.3382 110.883C62.3382 109.003 62.5552 107.463 62.9902 106.262C63.4242 105.061 64.0822 104.165 64.9652 103.573C65.8472 102.981 66.9592 102.685 68.3002 102.685C69.6662 102.685 70.7882 102.973 71.6682 103.547C72.5472 104.121 73.1982 104.992 73.6222 106.159ZM70.8722 107.611C70.6632 106.775 70.3462 106.15 69.9212 105.737C69.4952 105.323 68.9552 105.117 68.3002 105.117C67.6422 105.117 67.1002 105.324 66.6752 105.739C66.2492 106.154 65.9332 106.78 65.7262 107.617C65.5202 108.453 65.4162 109.519 65.4162 110.815C65.4162 112.114 65.5202 113.181 65.7262 114.018C65.9332 114.855 66.2492 115.481 66.6752 115.895C67.1002 116.31 67.6422 116.518 68.3002 116.518C68.9592 116.518 69.5012 116.309 69.9262 115.893C70.3522 115.476 70.6682 114.85 70.8742 114.013C71.0812 113.176 71.1842 112.11 71.1842 110.815C71.1842 109.516 71.0802 108.448 70.8722 107.611ZM51.3952 81.5363C51.4442 82.2403 51.6132 82.8233 51.9022 83.2863C52.1912 83.7503 52.5972 84.0973 53.1212 84.3273C53.6452 84.5583 54.2902 84.6733 55.0562 84.6733C55.8762 84.6733 56.6872 84.6113 57.4892 84.4853C58.2902 84.3603 59.0032 84.1853 59.6252 83.9613V86.9303C58.8862 87.2753 58.1162 87.5263 57.3142 87.6823C56.5122 87.8393 55.6122 87.9183 54.6132 87.9183C53.1352 87.9183 51.8732 87.6293 50.8272 87.0513C49.7812 86.4733 48.9862 85.6293 48.4422 84.5193C47.8972 83.4083 47.6252 82.0763 47.6252 80.5223C47.6252 78.9283 47.8742 77.5603 48.3712 76.4183C48.8682 75.2763 49.5922 74.4133 50.5412 73.8293C51.4912 73.2443 52.6462 72.9523 54.0082 72.9523C55.3702 72.9523 56.5282 73.2383 57.4822 73.8093C58.4362 74.3803 59.1642 75.2183 59.6662 76.3243C60.1672 77.4303 60.4182 78.7293 60.4182 80.2203C60.4182 80.7663 60.3912 81.2053 60.3372 81.5363H51.3952ZM56.2522 77.2343C56.0332 76.7893 55.7352 76.4543 55.3592 76.2303C54.9822 76.0063 54.5322 75.8943 54.0082 75.8943C53.4932 75.8943 53.0522 76.0043 52.6852 76.2233C52.3172 76.4433 52.0272 76.7743 51.8142 77.2183C51.6022 77.6613 51.4712 78.2123 51.4212 78.8703H56.6492C56.6042 78.2253 56.4722 77.6803 56.2522 77.2343ZM42.3902 118.369C41.5092 118.756 40.4332 118.949 39.1622 118.949C38.1502 118.949 37.2422 118.87 36.4382 118.713C35.6352 118.555 35.0002 118.333 34.5342 118.046V115.546C35.0522 115.802 35.7082 116.006 36.5012 116.158C37.2952 116.31 38.0962 116.386 38.9052 116.386C39.5672 116.386 40.1232 116.297 40.5752 116.119C41.0272 115.94 41.3672 115.677 41.5942 115.328C41.8222 114.98 41.9362 114.552 41.9362 114.044C41.9362 113.474 41.6992 112.993 41.2272 112.603C40.7542 112.212 40.0462 111.912 39.1042 111.702C38.1622 111.492 37.3152 111.38 36.5622 111.366C35.8092 111.352 35.3062 111.342 35.0542 111.335L35.3332 103.027H44.6252V105.526H38.2802L38.1542 108.814C39.3202 108.908 40.3332 109.087 41.1952 109.35C42.0562 109.612 42.7752 109.96 43.3512 110.392C43.9272 110.824 44.3592 111.34 44.6462 111.938C44.9332 112.537 45.0772 113.216 45.0772 113.976C45.0772 115.019 44.8492 115.916 44.3942 116.665C43.9392 117.414 43.2712 117.982 42.3902 118.369ZM40.6912 86.3793C40.1092 86.9173 39.4812 87.3133 38.8072 87.5683C38.1322 87.8243 37.3742 87.9513 36.5322 87.9513C35.4262 87.9513 34.4942 87.7493 33.7372 87.3433C32.9802 86.9383 32.4092 86.3393 32.0242 85.5473C31.6392 84.7543 31.4462 83.7843 31.4462 82.6383V73.3963H35.2152V82.1413C35.2152 82.7103 35.3112 83.1833 35.5012 83.5623C35.6912 83.9403 35.9782 84.2243 36.3612 84.4153C36.7442 84.6053 37.2242 84.7003 37.8022 84.7003C38.2902 84.7003 38.7622 84.6383 39.2172 84.5123C39.6712 84.3873 40.0982 84.2033 40.4962 83.9613V73.3963H44.2662V87.5083H40.9942L40.6912 86.3793ZM28.1232 118.369C27.2422 118.756 26.1662 118.949 24.8952 118.949C23.8832 118.949 22.9752 118.87 22.1712 118.713C21.3682 118.555 20.7332 118.333 20.2672 118.046V115.546C20.7852 115.802 21.4412 116.006 22.2342 116.158C23.0282 116.31 23.8292 116.386 24.6382 116.386C25.2992 116.386 25.8562 116.297 26.3082 116.119C26.7602 115.94 27.0992 115.677 27.3272 115.328C27.5552 114.98 27.6692 114.552 27.6692 114.044C27.6692 113.474 27.4322 112.993 26.9592 112.603C26.4872 112.212 25.7792 111.912 24.8372 111.702C23.8952 111.492 23.0482 111.38 22.2952 111.366C21.5422 111.352 21.0392 111.342 20.7872 111.335L21.0662 103.027H30.3582V105.526H24.0122L23.8862 108.814C25.0532 108.908 26.0662 109.087 26.9282 109.35C27.7892 109.612 28.5082 109.96 29.0842 110.392C29.6602 110.824 30.0922 111.34 30.3792 111.938C30.6662 112.537 30.8102 113.216 30.8102 113.976C30.8102 115.019 30.5822 115.916 30.1272 116.665C29.6722 117.414 29.0042 117.982 28.1232 118.369ZM29.6862 87.5083H25.1502L21.2402 81.1003C20.8552 80.4553 20.5302 80.0513 20.2662 79.8873C20.0012 79.7243 19.5652 79.6423 18.9562 79.6423H17.8542V87.5083H14.0042V67.5853H20.7702C22.3372 67.5853 23.6442 67.8063 24.6902 68.2473C25.7362 68.6883 26.5192 69.3483 27.0382 70.2253C27.5582 71.1033 27.8182 72.1963 27.8182 73.5033C27.8182 74.3993 27.6592 75.2173 27.3412 75.9583C27.0232 76.6993 26.5602 77.3293 25.9532 77.8493C25.3462 78.3683 24.6472 78.7363 23.8542 78.9503C24.4272 79.2243 24.9042 79.6743 25.2852 80.3013L29.6862 87.5083ZM23.4542 71.9143C23.1872 71.4783 22.7972 71.1483 22.2812 70.9243C21.7662 70.7003 21.1442 70.5883 20.4142 70.5883H17.8542V76.6943H20.4142C21.1572 76.6943 21.7862 76.5703 22.3022 76.3243C22.8172 76.0783 23.2042 75.7173 23.4642 75.2433C23.7242 74.7683 23.8542 74.1883 23.8542 73.5033C23.8542 72.8813 23.7202 72.3513 23.4542 71.9143ZM16.4382 106.923C16.4382 107.722 16.2422 108.418 15.8522 109.013C15.4612 109.609 14.8832 110.095 14.1162 110.473C15.0092 110.858 15.6722 111.364 16.1072 111.991C16.5412 112.618 16.7582 113.388 16.7582 114.302C16.7582 115.233 16.5102 116.051 16.0152 116.757C15.5192 117.462 14.8092 118.004 13.8852 118.382C12.9602 118.76 11.8752 118.949 10.6282 118.949C9.58416 118.949 8.63016 118.868 7.76516 118.705C6.90016 118.542 6.24016 118.323 5.78516 118.046V115.546C6.28516 115.791 6.96516 115.993 7.82316 116.15C8.68116 116.308 9.53016 116.386 10.3702 116.386C11.0362 116.386 11.6122 116.298 12.0992 116.121C12.5852 115.944 12.9602 115.686 13.2232 115.347C13.4852 115.007 13.6172 114.608 13.6172 114.149C13.6172 113.642 13.4802 113.213 13.2072 112.863C12.9342 112.513 12.5312 112.249 11.9992 112.072C11.4672 111.896 10.8152 111.807 10.0452 111.807H8.19616V109.223H10.0452C10.7282 109.223 11.3142 109.147 11.8052 108.995C12.2952 108.843 12.6662 108.623 12.9182 108.336C13.1702 108.049 13.2962 107.701 13.2962 107.291C13.2962 106.853 13.1842 106.482 12.9602 106.178C12.7362 105.873 12.4032 105.641 11.9622 105.482C11.5212 105.323 10.9902 105.243 10.3702 105.243C9.61116 105.243 8.85816 105.322 8.11216 105.479C7.36616 105.637 6.71316 105.852 6.15216 106.125V103.631C6.59716 103.368 7.25516 103.145 8.12516 102.961C8.99516 102.777 9.82916 102.685 10.6282 102.685C11.8152 102.685 12.8462 102.857 13.7222 103.2C14.5972 103.543 15.2692 104.037 15.7362 104.681C16.2042 105.325 16.4382 106.073 16.4382 106.923ZM56.3552 103.027V118.603H53.3242V105.847L49.1692 106.624V104.04L54.4012 103.027H56.3552ZM108.643 116.302C109.365 116.432 110.02 116.497 110.608 116.497C111.081 116.497 111.471 116.459 111.779 116.384C112.087 116.309 112.317 116.197 112.467 116.048C112.618 115.899 112.693 115.711 112.693 115.483C112.693 115.263 112.636 115.081 112.52 114.937C112.404 114.794 112.214 114.667 111.947 114.556C111.681 114.446 111.212 114.31 110.54 114.149C109.689 113.946 109.016 113.695 108.522 113.396C108.029 113.096 107.668 112.725 107.44 112.282C107.213 111.84 107.099 111.293 107.099 110.641C107.099 109.91 107.277 109.289 107.632 108.78C107.987 108.27 108.511 107.887 109.203 107.63C109.894 107.372 110.743 107.244 111.748 107.244C112.417 107.244 113.086 107.315 113.754 107.456C114.423 107.598 114.908 107.772 115.21 107.979V110.342C114.828 110.163 114.294 109.108 113.607 109.875C112.921 109.742 112.301 109.675 111.748 109.675C111.405 109.675 111.112 109.711 110.871 109.783C110.629 109.855 110.445 109.962 110.319 110.106C110.193 110.249 110.13 110.428 110.13 110.641C110.13 110.855 110.183 111.03 110.29 111.167C110.397 111.303 110.572 111.422 110.815 111.524C111.059 111.625 111.541 111.762 112.263 111.933C113.117 112.14 113.792 112.392 114.288 112.689C114.783 112.987 115.146 113.357 115.378 113.8C115.609 114.243 115.724 114.79 115.724 115.441C115.724 116.138 115.526 116.751 115.128 117.282C114.731 117.812 114.162 118.218 113.421 118.5C112.68 118.782 111.806 118.923 110.797 118.923C110.065 118.923 109.332 118.854 108.599 118.715C107.865 118.577 107.328 118.41 106.989 118.214V115.851C107.37 116.022 107.922 116.173 108.643 116.302ZM130.314 107.903C131.136 107.449 132.135 107.223 133.311 107.223C134.502 107.223 135.507 107.444 136.327 107.887C137.146 108.33 137.766 108.989 138.186 109.864C138.606 110.739 138.816 111.809 138.816 113.073C138.816 114.319 138.603 115.384 138.176 116.268C137.748 117.152 137.124 117.82 136.303 118.272C135.482 118.723 134.484 118.949 133.311 118.949C132.114 118.949 131.105 118.726 130.286 118.28C129.466 117.833 128.847 117.172 128.429 116.297C128.01 115.422 127.801 114.354 127.801 113.094C127.801 111.851 128.014 110.788 128.442 109.906C128.869 109.024 129.493 108.356 130.314 107.903ZM131.116 115C131.305 115.518 131.583 115.908 131.951 116.169C132.318 116.429 132.772 116.56 133.311 116.56C133.847 116.56 134.299 116.428 134.667 116.163C135.034 115.899 135.313 115.506 135.502 114.984C135.691 114.463 135.785 113.826 135.785 113.073C135.785 112.324 135.691 111.69 135.502 111.172C135.313 110.654 135.034 110.264 134.667 110.003C134.299 109.743 133.847 109.612 133.311 109.612C132.775 109.612 132.323 109.743 131.953 110.006C131.584 110.269 131.305 110.661 131.116 111.182C130.926 111.704 130.832 112.341 130.832 113.094C130.832 113.847 130.926 114.482 131.116 115ZM160.075 113.635H154.244V110.731H160.075V113.635ZM201.516 105.908H198.568V103.024H201.516V105.908ZM201.516 118.603H198.568V107.567H201.516V118.603Z" fill="white"/>
</svg>
